# xmcd
#
# Track frame offsets:
#	150
#	15045
#	33915
#	48452
#	63125
#	74702
#	89390
#	101965
#	116210
#	133660
#	149330
#
# Disc length: 2151 seconds
#
# Revision: 1
# Processed by: cddbd v1.5.2PL0 Copyright (c) Steve Scherf et al.
# Submitted via: audiograbber 1.83.01
#
DISCID=9b08650b
DTITLE=Various Artist - Greatest Music Heard Volume 17
DYEAR=1900
DGENRE=Country
TTITLE0=Alabama - Hometown Honeymoon
TTITLE1=Morgan. Lorrie - I Guess You Had To be There
TTITLE2=Tillis, Pam - Cleopatra, Queen of Denial
TTITLE3=Supernaw, Doug - Honky Tonkin' Fool
TTITLE4=Stewart, Larry - Alright Already
TTITLE5=Diamond Rio - Oh Me Oh My Sweet Lady
TTITLE6=Ellis-Orrall, Robert - A Little bit Of Her Love
TTITLE7=Parnell, Roy Lee - Tender Moment
TTITLE8=Overstreet, Paul - Take Another Run
TTITLE9=Mowrey, Dude - Maybe You Were The One
TTITLE10=Gorka, John - When She Kisses Me
EXTD=
EXTT0=
EXTT1=
EXTT2=
EXTT3=
EXTT4=
EXTT5=
EXTT6=
EXTT7=
EXTT8=
EXTT9=
EXTT10=
PLAYORDER=
